<?xml version="1.0" encoding="UTF-8"?><svg xmlns="http://www.w3.org/2000/svg" viewBox="0 0 488 116">
  <defs>
    <style>
      .c {
        fill: #46338a;
      }

    </style>
  </defs>
  <g id="a">
    <g>
      <path class="c" d="M476.19,22.72c6,0,10.86-4.86,10.86-10.86s-4.86-10.86-10.86-10.86-10.86,4.86-10.86,10.86,4.86,10.86,10.86,10.86Z" />
      <path class="c" d="M215.65,16.82h-21.79v22.24h-10.82v17.58h10.82v31.85c0,21.04,11.72,27.2,27.65,27.2,4.51,0,9.62-.9,12.62-1.8v-18.03c-2.55,.9-5.71,1.35-8.26,1.35-7.06,0-10.22-3.01-10.22-9.92v-30.65h18.48v-17.58h-18.48V16.82Z" />
      <path class="c" d="M274.25,16.82h-21.79v22.24h-10.82v17.58h10.82v31.85c0,21.04,11.72,27.2,27.65,27.2,4.51,0,9.62-.9,12.62-1.8v-18.03c-2.55,.9-5.71,1.35-8.26,1.35-7.06,0-10.22-3.01-10.22-9.92v-30.65h18.48v-17.58h-18.48V16.82Z" />
      <path class="c" d="M339.46,37.56c-17.43,0-34.26,7.66-34.26,27.35h21.49c0-7.36,4.66-11.42,12.17-11.42,6.76,0,11.87,3.16,11.87,8.41,0,14.73-47.78,.45-47.78,32.3,0,14.88,12.17,21.49,24.64,21.49,10.37,0,19.08-3.76,23.89-12.92v11.42h21.04V62.5c0-18.03-15.78-24.94-33.06-24.94Zm11.57,46.73c0,10.07-7.81,15.33-16.83,15.33-5.26,0-9.47-2.4-9.47-7.21,0-8.72,15.93-7.36,26.29-12.02v3.91Z" />
      <polygon class="c" points="386.31 114.19 407.88 114.19 407.88 69.26 451.74 69.26 451.74 50.08 407.88 50.08 407.88 20.88 455.81 20.88 455.81 1.86 386.31 1.86 386.31 114.19" />
      <rect class="c" x="465.33" y="39.06" width="21.72" height="75.13" />
      <path class="c" d="M141.24,37.64c-22.09,0-38.02,16.08-38.02,39.07s15.93,39.07,38.02,39.07c17.99,0,30.82-8.28,35.79-23.96h-22.34c-2.31,4.07-6.58,6.08-12.86,6.08-9.92,0-15.93-5.26-17.73-15.18h54.84c.15-1.95,.3-3.91,.3-6.01,0-22.99-15.93-39.07-38.01-39.07Zm-16.98,32.3c1.8-9.46,7.81-14.42,16.98-14.42s15.18,4.96,16.98,14.42h-33.96Z" />
      <polygon class="c" points="82.44 1.87 57.33 70.86 32.9 1.87 26.75 1.87 54.21 79.43 50.81 88.79 20.03 1.87 13.87 1.87 47.69 97.35 47.69 97.36 44.28 106.73 7.15 1.87 1 1.87 40.77 114.19 41.56 114.19 46.92 114.19 66.52 114.19 72.67 114.19 75 114.19 115.88 1.87 82.44 1.87" />
    </g>
  </g>
  <g id="b" />
</svg>
